<svg width="121" height="25" viewBox="0 0 121 25" fill="none" xmlns="http://www.w3.org/2000/svg">
<path fill-rule="evenodd" clip-rule="evenodd" d="M14.2333 12.6822C14.7338 11.7533 16.0667 11.781 16.5366 12.7164L16.5373 12.7179L18.9207 17.4859L19.6742 15.9789C19.9684 15.3882 20.5727 15.016 21.2306 15.016H22.4501C22.9235 15.016 23.3073 15.3998 23.3073 15.8732C23.3073 16.3465 22.9235 16.7303 22.4501 16.7303H21.2306C21.2199 16.7303 21.212 16.7366 21.2091 16.7424L20.0825 18.9956L20.0819 18.9968C19.604 19.9542 18.2367 19.9542 17.7592 18.9964L17.7588 18.9956L15.3616 14.2L14.4872 15.8182C14.1835 16.3783 13.5966 16.7303 12.9566 16.7303H11.8571C11.3838 16.7303 11 16.3465 11 15.8732C11 15.3998 11.3838 15.016 11.8571 15.016H12.9566C12.9646 15.016 12.9746 15.0111 12.98 15.0013L14.2328 12.683L14.2333 12.6822Z" fill="#F5A351"/>
<path fill-rule="evenodd" clip-rule="evenodd" d="M8.23445 14.0061L8.23443 14.006C6.91151 8.14554 11.3672 2.57143 17.3753 2.57143C23.3834 2.57143 27.8391 8.1456 26.5161 14.0061L26.5161 14.0062L24.5796 22.5877C24.4424 23.1958 24.7608 23.8005 25.3092 24.0448C25.6738 24.4114 26.1795 24.6429 26.7511 24.6429H28.5451C30.5491 24.6429 32.2845 23.2541 32.7257 21.3004L33.7413 16.8001C34.3457 14.1212 32.308 11.5714 29.5606 11.5714H29.3175C29.1343 5.3081 23.994 0 17.3753 0C10.7566 0 5.61627 5.3081 5.43307 11.5714H5.00182C2.25445 11.5714 0.216771 14.1212 0.821128 16.8001L1.8367 21.3004C2.27799 23.2541 4.01336 24.6429 6.01732 24.6429H7.81132C8.33522 24.6429 8.80382 24.4484 9.15907 24.1337C9.17322 24.131 9.18737 24.128 9.20152 24.1248C9.89416 23.9684 10.3288 23.2801 10.1724 22.5875L8.23445 14.0061ZM3.32952 16.2342C3.08793 15.1631 3.90322 14.1429 5.00182 14.1429H5.35107L7.14152 22.0714H6.01732C5.21637 22.0714 4.5218 21.5163 4.345 20.7341L3.32952 16.2342ZM31.2329 16.2342C31.4745 15.1631 30.6592 14.1429 29.5606 14.1429H29.2114L27.4209 22.0714H28.5451C29.3461 22.0714 30.0406 21.5163 30.2174 20.7341L31.2329 16.2342Z" fill="#F5A351"/>
<path d="M41 21.76L47.576 4.96H50.792L57.344 21.76H53.648L50.264 12.712C50.168 12.456 50.048 12.128 49.904 11.728C49.776 11.328 49.64 10.904 49.496 10.456C49.352 10.008 49.216 9.584 49.088 9.184C48.96 8.768 48.864 8.424 48.8 8.152L49.448 8.128C49.352 8.496 49.24 8.88 49.112 9.28C49 9.664 48.88 10.064 48.752 10.48C48.624 10.88 48.488 11.272 48.344 11.656C48.2 12.04 48.064 12.416 47.936 12.784L44.552 21.76H41ZM44.048 18.232L45.224 15.328H52.928L54.128 18.232H44.048Z" fill="#E7E9EA"/>
<path d="M59.1989 21.76V9.064H62.4869L62.5589 11.488L62.0549 11.584C62.2309 11.168 62.4629 10.792 62.7509 10.456C63.0389 10.12 63.3749 9.832 63.7589 9.592C64.1589 9.352 64.5749 9.168 65.0069 9.04C65.4389 8.896 65.8709 8.824 66.3029 8.824C66.9589 8.824 67.5509 8.928 68.0789 9.136C68.6069 9.344 69.0549 9.672 69.4229 10.12C69.7909 10.552 70.0789 11.128 70.2869 11.848L69.7589 11.8L69.9269 11.416C70.1349 11.032 70.3989 10.688 70.7189 10.384C71.0389 10.064 71.3989 9.792 71.7989 9.568C72.1989 9.328 72.6149 9.144 73.0469 9.016C73.4789 8.888 73.9029 8.824 74.3189 8.824C75.3109 8.824 76.1349 9.024 76.7909 9.424C77.4469 9.808 77.9349 10.392 78.2549 11.176C78.5909 11.96 78.7589 12.92 78.7589 14.056V21.76H75.3509V14.296C75.3509 13.72 75.2709 13.248 75.1109 12.88C74.9509 12.512 74.7189 12.24 74.4149 12.064C74.1109 11.872 73.7189 11.776 73.2389 11.776C72.8709 11.776 72.5269 11.84 72.2069 11.968C71.9029 12.08 71.6309 12.248 71.3909 12.472C71.1669 12.68 70.9909 12.928 70.8629 13.216C70.7349 13.504 70.6709 13.824 70.6709 14.176V21.76H67.2629V14.272C67.2629 13.744 67.1749 13.296 66.9989 12.928C66.8389 12.544 66.6069 12.256 66.3029 12.064C65.9989 11.872 65.6229 11.776 65.1749 11.776C64.8069 11.776 64.4629 11.84 64.1429 11.968C63.8389 12.08 63.5749 12.248 63.3509 12.472C63.1269 12.68 62.9429 12.928 62.7989 13.216C62.6709 13.504 62.6069 13.816 62.6069 14.152V21.76H59.1989Z" fill="#E7E9EA"/>
<path d="M89.3242 22C88.7642 22 88.2202 21.92 87.6922 21.76C87.1642 21.6 86.6842 21.384 86.2522 21.112C85.8202 20.824 85.4602 20.504 85.1722 20.152C84.8842 19.784 84.7002 19.408 84.6202 19.024L85.3882 18.736L85.2202 21.712H82.0042V4H85.4122V12.04L84.7642 11.776C84.8602 11.392 85.0442 11.024 85.3162 10.672C85.5882 10.304 85.9322 9.984 86.3482 9.712C86.7642 9.424 87.2202 9.2 87.7162 9.04C88.2122 8.88 88.7242 8.8 89.2522 8.8C90.3562 8.8 91.3402 9.088 92.2042 9.664C93.0682 10.224 93.7482 11 94.2442 11.992C94.7562 12.984 95.0122 14.12 95.0122 15.4C95.0122 16.68 94.7642 17.816 94.2682 18.808C93.7722 19.8 93.0922 20.584 92.2282 21.16C91.3802 21.72 90.4122 22 89.3242 22ZM88.5082 19.096C89.1482 19.096 89.7002 18.944 90.1642 18.64C90.6442 18.32 91.0202 17.888 91.2922 17.344C91.5642 16.784 91.7002 16.136 91.7002 15.4C91.7002 14.68 91.5642 14.04 91.2922 13.48C91.0362 12.92 90.6682 12.488 90.1882 12.184C89.7082 11.88 89.1482 11.728 88.5082 11.728C87.8682 11.728 87.3082 11.88 86.8282 12.184C86.3482 12.488 85.9722 12.92 85.7002 13.48C85.4282 14.04 85.2922 14.68 85.2922 15.4C85.2922 16.136 85.4282 16.784 85.7002 17.344C85.9722 17.888 86.3482 18.32 86.8282 18.64C87.3082 18.944 87.8682 19.096 88.5082 19.096Z" fill="#E7E9EA"/>
<path d="M103.614 22C102.238 22 101.038 21.72 100.014 21.16C98.9901 20.6 98.1901 19.832 97.6141 18.856C97.0381 17.88 96.7501 16.76 96.7501 15.496C96.7501 14.52 96.9101 13.624 97.2301 12.808C97.5501 11.992 97.9981 11.288 98.5741 10.696C99.1501 10.088 99.8301 9.624 100.614 9.304C101.414 8.968 102.278 8.8 103.206 8.8C104.07 8.8 104.87 8.96 105.606 9.28C106.342 9.584 106.974 10.024 107.502 10.6C108.046 11.16 108.462 11.824 108.75 12.592C109.038 13.36 109.166 14.2 109.134 15.112L109.11 16.168H98.9101L98.3581 14.08H106.302L105.918 14.512V13.984C105.886 13.552 105.742 13.16 105.486 12.808C105.246 12.456 104.934 12.184 104.55 11.992C104.166 11.8 103.734 11.704 103.254 11.704C102.55 11.704 101.95 11.84 101.454 12.112C100.974 12.384 100.606 12.784 100.35 13.312C100.094 13.84 99.9661 14.48 99.9661 15.232C99.9661 16 100.126 16.664 100.446 17.224C100.782 17.784 101.246 18.224 101.838 18.544C102.446 18.848 103.158 19 103.974 19C104.534 19 105.046 18.912 105.51 18.736C105.974 18.56 106.47 18.256 106.998 17.824L108.63 20.104C108.166 20.52 107.654 20.872 107.094 21.16C106.534 21.432 105.958 21.64 105.366 21.784C104.774 21.928 104.19 22 103.614 22Z" fill="#E7E9EA"/>
<path d="M111.653 21.76V9.064H114.941L115.061 13.144L114.485 12.304C114.677 11.648 114.989 11.056 115.421 10.528C115.853 9.984 116.357 9.56 116.933 9.256C117.525 8.952 118.141 8.8 118.781 8.8C119.053 8.8 119.317 8.824 119.573 8.872C119.829 8.92 120.045 8.976 120.221 9.04L119.309 12.784C119.117 12.688 118.885 12.608 118.613 12.544C118.341 12.464 118.061 12.424 117.773 12.424C117.389 12.424 117.029 12.496 116.693 12.64C116.373 12.768 116.093 12.96 115.853 13.216C115.613 13.456 115.421 13.744 115.277 14.08C115.149 14.416 115.085 14.784 115.085 15.184V21.76H111.653Z" fill="#E7E9EA"/>
</svg>
