<svg width="24" height="24" viewBox="0 0 24 24" fill="none" xmlns="http://www.w3.org/2000/svg">
<path fill-rule="evenodd" clip-rule="evenodd" d="M8.90954 1.52799C9.2206 1.07164 9.84271 0.953855 10.2991 1.26492L13.3097 3.31704C13.7661 3.62811 13.8839 4.25022 13.5728 4.70657L11.6684 7.50052C11.3573 7.95687 10.7352 8.07466 10.2788 7.7636C9.82249 7.45253 9.70471 6.83042 10.0158 6.37407L10.773 5.26311C10.7342 5.27473 10.6943 5.28411 10.6533 5.29111C8.94355 5.58309 7.37496 6.42287 6.18397 7.6839C4.99297 8.94492 4.24409 10.5589 4.05017 12.2826C3.85624 14.0062 4.22779 15.7462 5.10882 17.2404C5.98985 18.7345 7.33262 19.9018 8.9348 20.5664C10.537 21.231 12.3118 21.3569 13.9917 20.9251C15.6716 20.4932 17.1657 19.5271 18.2488 18.1722C19.3318 16.8174 19.9452 15.1472 19.9965 13.4134C20.0478 11.6796 19.5342 9.97616 18.5331 8.55967C18.2143 8.10866 18.3215 7.48464 18.7725 7.16588C19.2236 6.84713 19.8476 6.95434 20.1663 7.40536C21.4177 9.17597 22.0597 11.3053 21.9956 13.4726C21.9315 15.6398 21.1648 17.7275 19.811 19.4211C18.4571 21.1146 16.5895 22.3223 14.4896 22.8621C12.3897 23.4019 10.1712 23.2445 8.1685 22.4138C6.16577 21.5831 4.48731 20.1239 3.38602 18.2562C2.28474 16.3886 1.8203 14.2136 2.0627 12.059C2.30511 9.90436 3.24121 7.88692 4.72996 6.31063C6.1179 4.84108 7.91608 3.82919 9.88507 3.40315L9.17261 2.91752C8.71626 2.60646 8.59848 1.98435 8.90954 1.52799ZM10.7134 16.8972L14.7748 13.9759C15.0786 13.7598 15.0715 13.2412 14.7748 13.0252L10.7134 10.0953C10.4097 9.87055 10 10.0607 10 10.4842V16.5082C10 16.9317 10.3814 17.1392 10.7134 16.8972Z" fill="black"/>
</svg>
