<svg xmlns="http://www.w3.org/2000/svg" width="24" height="24" fill="none" viewBox="0 0 24 24"><path fill="#000" fill-rule="evenodd" d="M19.707 3.314a1 1 0 1 0-1.414 1.414l.284.284-1.962-.007a4.001 4.001 0 0 0-3.342 1.782L7.063 16.1a2.002 2.002 0 0 1-1.674.891l-2.384-.012a1 1 0 0 0-.01 2l2.384.012a4.003 4.003 0 0 0 3.35-1.781l6.208-9.315a2 2 0 0 1 1.672-.89l1.985.007-.301.302a1 1 0 0 0 1.414 1.414l1.999-1.998.014-.015a.997.997 0 0 0-.013-1.401l-2-2zm-1.414 11.958a1 1 0 0 1 1.414 0l1.995 1.994a1.039 1.039 0 0 1 .202.284.994.994 0 0 1 .002.852.994.994 0 0 1-.204.29l-1.995 1.994a1 1 0 0 1-1.414-1.414l.284-.284-2.095.007a4.001 4.001 0 0 1-3.178-1.552l-1.126-1.456a1 1 0 1 1 1.582-1.224l1.126 1.456a2 2 0 0 0 1.588.776l2.12-.008-.301-.3a1 1 0 0 1 0-1.415zM8.715 6.668a4 4 0 0 0-3.265-1.66l-2.455.013a1 1 0 0 0 .01 2l2.455-.013a2.001 2.001 0 0 1 1.633.83l.989 1.372a1 1 0 1 0 1.622-1.17l-.989-1.372z" clip-rule="evenodd"/></svg>